<?xml version="1.0" encoding="utf-8"?>
<svg version="1.1" xmlns="http://www.w3.org/2000/svg" xmlns:xlink="http://www.w3.org/1999/xlink" viewBox="0 0 1000 1000" xml:space="preserve">
<style type="text/css">.st0{fill:#6D0C32;}.st1{fill:#222426;}</style>
<g>
	<g>
		<path class="st0" d="M456.86,554.94c0.01,3.46,2.78,6.15,6.18,6.14c3.4-0.01,6.15-2.78,6.14-6.18c-0.01-3.4-2.78-6.15-6.18-6.14
			l-5.28,0.02l-0.01-1.76l6.54-8.52l-11.55,0.04l-0.02-5.57l20.52-0.07l0.01,1.76l-7.06,9.29c4.75,1.33,8.29,5.72,8.3,10.94
			c0.02,6.33-5.06,11.45-11.4,11.47c-6.33,0.02-11.45-5.06-11.47-11.39l-0.01-1.76l5.28-0.02L456.86,554.94z"/>
		<path class="st0" d="M495.68,524.03l6.22-0.02l-9.27,15.33c0.35-0.06,0.71-0.06,1.11-0.06c7.45-0.03,13.5,5.99,13.53,13.44
			c0.03,7.45-5.99,13.5-13.44,13.53c-7.45,0.02-13.5-5.99-13.53-13.44c-0.01-2.81,0.98-5.46,2.32-7.63L495.68,524.03z
			 M493.81,560.97c4.51-0.02,8.2-3.72,8.18-8.24c-0.02-4.51-3.72-8.2-8.24-8.18c-4.51,0.02-8.2,3.72-8.18,8.24
			C485.59,557.31,489.3,560.99,493.81,560.97z"/>
		<path class="st0" d="M540.1,552.61c0.03,7.45-5.99,13.5-13.44,13.53c-7.45,0.03-13.5-5.99-13.53-13.44l-0.03-7.62
			c-0.02-7.44,5.99-13.5,13.44-13.53c7.45-0.03,13.51,5.99,13.53,13.44L540.1,552.61z M534.8,545c-0.02-4.51-3.72-8.2-8.24-8.18
			c-4.51,0.02-8.2,3.72-8.18,8.24l0.03,7.62c0.02,4.51,3.72,8.2,8.24,8.18s8.2-3.72,8.18-8.24L534.8,545z"/>
	</g>
</g>
</svg>
