<?xml version="1.0" encoding="utf-8"?>
<!-- Generator: Adobe Illustrator 27.6.1, SVG Export Plug-In . SVG Version: 6.00 Build 0)  -->
<svg version="1.1" id="Слой_1" xmlns="http://www.w3.org/2000/svg" xmlns:xlink="http://www.w3.org/1999/xlink" x="0px" y="0px"
	 viewBox="0 0 1000 1000" style="enable-background:new 0 0 1000 1000;" xml:space="preserve">
<style type="text/css">
	.st0{fill:#222426;}
	.st1{fill:#6D0C32;}
	.st2{fill:#E9E9E9;}
</style>
<rect class="st1" width="1000" height="1000"/>
<g>
	<path class="st2" d="M458.6,254.7v-93C290.1,182.1,159.1,326,159.1,500c0,174,131,318,299.5,338.4v-93
		C341,725.6,251.2,623.2,251.2,500C251.2,376.8,341,274.4,458.6,254.7z M541.4,161.6v93C659,274.4,748.7,376.8,748.7,500
		c0,123.2-89.7,225.6-207.3,245.4v93C709.9,817.9,840.9,674,840.9,500C840.9,326,709.9,182.1,541.4,161.6z"/>
	<g>
		<g>
			<path class="st2" d="M541.4,254.7v490.6c-13.4,2.3-27.3,3.5-41.4,3.5c-14.1,0-28-1.1-41.4-3.5V254.7c13.4-2.3,27.3-3.5,41.4-3.5
				C514.1,251.2,527.9,252.4,541.4,254.7z"/>
		</g>
	</g>
</g>
</svg>
