<?xml version="1.0" encoding="utf-8"?>
<!-- Generator: Adobe Illustrator 27.6.1, SVG Export Plug-In . SVG Version: 6.00 Build 0)  -->
<svg version="1.1" id="Слой_1" xmlns="http://www.w3.org/2000/svg" xmlns:xlink="http://www.w3.org/1999/xlink" x="0px" y="0px"
	 viewBox="0 400 930 200" preserveAspectRatio="xMidYMid meet" style="enable-background:new 0 0 1000 1000;" xml:space="preserve">
<style type="text/css">
	.st0{fill:#E9E9E9;}
	.st1{fill:#222426;}
	.st2{fill:#6D0C32;}
	.st3{fill:#FFFFFF;}
</style>
<g>
	<path class="st2" d="M450.48,468.18v68.43c16.4-2.75,28.92-17.05,28.92-34.22C479.4,485.23,466.88,470.94,450.48,468.18z
		 M450.48,468.18v68.43c16.4-2.75,28.92-17.05,28.92-34.22C479.4,485.23,466.88,470.94,450.48,468.18z M410.03,502.4
		c0,17.17,12.52,31.46,28.92,34.22v-68.43C422.54,470.94,410.03,485.23,410.03,502.4z M840,419.59H1.38v160.81h868.47L840,419.59z
		 M450.48,549.59v-12.98c-1.88,0.31-3.8,0.48-5.76,0.48c-1.96,0-3.9-0.17-5.78-0.48v12.98c-23.49-2.86-41.77-22.93-41.77-47.19
		c0-24.26,18.28-44.33,41.77-47.19v12.98c1.88-0.31,3.82-0.48,5.78-0.48c1.96,0,3.88,0.17,5.76,0.48v-12.98
		c23.51,2.86,41.77,22.93,41.77,47.19C492.25,526.66,473.99,546.73,450.48,549.59z M552.65,549.95c-24.26,0-44.33-18.28-47.19-41.79
		h12.98c2.75,16.42,17.02,28.94,34.22,28.94c17.17,0,31.46-12.52,34.22-28.94h12.96C596.98,531.67,576.89,549.95,552.65,549.95z
		 M586.86,496.62c-2.75-16.4-17.05-28.92-34.22-28.92c-17.19,0-31.46,12.52-34.22,28.92h-12.98c2.86-23.49,22.93-41.77,47.19-41.77
		c24.24,0,44.33,18.28,47.17,41.77H586.86z M646.7,512.04h-16.96v35.32h-12.85v-89.94h29.81c9.89,0,18.53,5.19,23.35,13.04h-21.09
		c-0.73-0.13-1.48-0.19-2.25-0.19h-16.96v28.92h16.96c0.77,0,1.52-0.06,2.25-0.17h21.16C665.31,506.86,656.63,512.04,646.7,512.04z
		 M705.1,470.62l21.24,28.56h-16.11l-21.47-28.92L705.1,470.62z M717.76,547.36h-14.65l18.38-33.01l6.93-12.33l24.81-44.61h14.65
		L717.76,547.36z M822.22,547.36l-28.92-53.83l-9.89,53.83h-12.98l15.54-89.94h2.59l34.93,65.28l23.93-44.67l3.67,20.36
		l-26.31,48.97H822.22z M479.4,502.4c0-17.17-12.52-31.46-28.92-34.22v68.43C466.88,533.86,479.4,519.57,479.4,502.4z M410.03,502.4
		c0,17.17,12.52,31.46,28.92,34.22v-68.43C422.54,470.94,410.03,485.23,410.03,502.4z M450.48,468.18v68.43
		c16.4-2.75,28.92-17.05,28.92-34.22C479.4,485.23,466.88,470.94,450.48,468.18z"/>
	<g>
		<g>
			<path class="st1" d="M866.24,460.91c-3.61,0.65-5.91,4.03-5.27,7.58c0.64,3.55,4.03,5.91,7.58,5.27
				c3.55-0.64,5.91-4.03,5.27-7.58l-0.99-5.51l1.84-0.33l10.11,5.25l-2.17-12.05l5.81-1.05l3.86,21.41l-1.84,0.33l-11-5.66
				c-0.51,5.21-4.44,9.71-9.89,10.69c-6.61,1.19-12.89-3.17-14.08-9.78c-1.19-6.61,3.17-12.89,9.78-14.08l1.84-0.33l0.99,5.51
				L866.24,460.91z"/>
			<path class="st1" d="M905.68,495.75l1.17,6.49l-17.72-6.85c0.13,0.36,0.19,0.73,0.27,1.15c1.4,7.77-3.77,15.21-11.54,16.61
				c-7.77,1.4-15.21-3.77-16.61-11.54c-1.4-7.77,3.77-15.21,11.54-16.61c2.94-0.53,5.88,0.01,8.4,1.01L905.68,495.75z
				 M866.76,500.61c0.85,4.71,5.4,7.87,10.11,7.02c4.71-0.85,7.87-5.4,7.02-10.11c-0.85-4.71-5.4-7.87-10.11-7.02
				C869.07,491.35,865.91,495.9,866.76,500.61z"/>
			<path class="st1" d="M884.03,547.4c-7.77,1.4-15.21-3.77-16.61-11.54c-1.4-7.77,3.77-15.21,11.54-16.61l7.95-1.43
				c7.77-1.4,15.21,3.77,16.61,11.54c1.4,7.77-3.77,15.21-11.54,16.61L884.03,547.4z M890.99,540.46c4.71-0.85,7.87-5.4,7.02-10.11
				c-0.85-4.71-5.4-7.87-10.11-7.02l-7.95,1.43c-4.71,0.85-7.87,5.4-7.02,10.11c0.85,4.71,5.4,7.87,10.11,7.02L890.99,540.46z"/>
		</g>
	</g>
</g>
</svg>
